<?xml version="1.0" encoding="utf-8"?>
<!-- Generator: Adobe Illustrator 26.0.3, SVG Export Plug-In . SVG Version: 6.00 Build 0)  -->
<svg version="1.1" id="Logo" xmlns="http://www.w3.org/2000/svg" xmlns:xlink="http://www.w3.org/1999/xlink" x="0px" y="0px"
	 viewBox="0 0 2130 2130" style="enable-background:new 0 0 2130 2130;" xml:space="preserve">
<style type="text/css">
	.st0{fill:#FFFFFF;}
	.st1{fill-rule:evenodd;clip-rule:evenodd;}
</style>
<g id="Logo_00000031893763846544027470000004461706997212514718_">
	<g>
		<g>
			<circle class="st0" cx="1082.8" cy="915.6" r="376.3"/>
			<path d="M1082.8,1297.2c-51.5,0-101.5-10.1-148.5-30c-45.4-19.2-86.3-46.7-121.3-81.8c-35-35-62.6-75.9-81.8-121.3
				c-19.9-47.1-30-97-30-148.5c0-51.5,10.1-101.5,30-148.5c19.2-45.4,46.7-86.3,81.8-121.3c35-35,75.9-62.6,121.3-81.8
				c47-19.9,97-30,148.5-30c51.5,0,101.5,10.1,148.5,30c45.4,19.2,86.3,46.7,121.3,81.8c35,35,62.6,75.9,81.8,121.3
				c19.9,47.1,30,97,30,148.5c0,51.5-10.1,101.5-30,148.5c-19.2,45.4-46.7,86.3-81.8,121.3c-35,35-75.9,62.6-121.3,81.8
				C1184.3,1287.1,1134.3,1297.2,1082.8,1297.2z M1082.8,544.7c-204.5,0-370.9,166.4-370.9,370.9c0,204.5,166.4,370.9,370.9,370.9
				s370.9-166.4,370.9-370.9C1453.7,711.1,1287.3,544.7,1082.8,544.7z"/>
		</g>
		<polygon class="st1" points="1349.3,1073 1175.8,977.3 1335.7,1094.4 1170.6,984.8 1320.3,1114.6 1164.8,991.8 1303.4,1133.5 
			1158.4,998.4 1285,1150.9 1151.5,1004.4 1265.2,1166.8 1144.1,1009.9 1244.2,1181.1 1136.3,1014.7 1222.2,1193.5 1128.2,1018.9 
			1199.1,1204.2 1119.7,1022.4 1175.4,1212.9 1111,1025.2 1150.9,1219.6 1102.1,1027.2 1126.1,1224.4 1093.1,1028.6 1100.9,1227.1 
			1084,1029.2 1075.6,1227.7 1074.9,1029 1050.4,1226.3 1065.8,1028.1 1025.3,1222.8 1056.8,1026.5 1000.6,1217.2 1048,1024.2 
			976.5,1209.7 1039.4,1021.1 953.1,1200.3 1031.1,1017.3 930.5,1188.9 1023.1,1012.9 908.9,1175.7 1015.5,1007.8 888.5,1160.8 
			1008.4,1002.2 869.3,1144.3 1001.7,995.9 851.6,1126.3 995.6,989.2 835.4,1106.9 990,981.9 820.8,1086.2 985.1,974.2 808,1064.4 
			980.8,966.2 797,1041.6 977.1,957.8 787.9,1018 974.2,949.2 780.7,993.7 972,940.3 775.6,969 970.5,931.3 772.5,943.8 
			969.7,922.2 771.4,918.5 969.7,913 772.4,893.2 970.4,903.9 775.5,868 971.9,894.9 780.6,843.2 974.1,886 787.7,818.8 977,877.3 
			796.7,795.1 980.7,868.9 807.7,772.2 984.9,860.8 820.4,750.3 989.9,853.1 835,729.5 995.4,845.8 851.1,710 1001.5,839 
			868.8,691.8 1008.2,832.7 887.9,675.1 1015.3,827 908.3,660 1022.9,821.8 929.8,646.7 1030.8,817.3 952.4,635.1 1039.1,813.5 
			975.8,625.4 1047.7,810.3 999.9,617.7 1056.5,807.9 1024.6,611.9 1065.5,806.2 1049.6,608.2 1074.6,805.2 1074.9,606.5 
			1083.7,805 1100.2,606.9 1092.8,805.5 1125.4,609.4 1101.9,806.8 1150.2,613.9 1110.8,808.8 1174.7,620.4 1119.5,811.5 
			1198.5,628.9 1128,814.9 1221.5,639.4 1136.1,819 1243.6,651.6 1143.9,823.7 1264.6,665.7 1151.3,829.1 1284.4,681.4 
			1158.2,835.1 1302.9,698.7 1164.6,841.6 1319.8,717.4 1170.4,848.6 1335.2,737.5 1175.7,856 1348.9,758.7 1180.3,863.9 
			1360.9,781 1184.3,872.1 1370.9,804.3 1187.6,880.7 1379.1,828.2 1190.2,889.4 1385.2,852.8 1192,898.4 1389.4,877.8 
			1193.1,907.4 1391.5,903 1193.5,916.6 1391.5,928.4 1193.2,925.7 1389.5,953.6 1192.1,934.8 1385.4,978.6 1190.2,943.8 
			1379.3,1003.3 1187.7,952.6 1371.2,1027.3 1184.4,961.1 1361.2,1050.6 1180.4,969.4 		"/>
		<g>
			<ellipse class="st0" cx="1084.8" cy="913.3" rx="164.3" ry="166.9"/>
			<path d="M1084.8,1084.4c-45,0-87.3-17.8-119.2-50.1c-31.8-32.3-49.3-75.2-49.3-120.9c0-45.7,17.5-88.6,49.3-120.9
				c31.8-32.3,74.1-50.1,119.2-50.1c45,0,87.3,17.8,119.2,50.1c31.8,32.3,49.3,75.2,49.3,120.9c0,45.7-17.5,88.6-49.3,120.9
				C1172.1,1066.6,1129.8,1084.4,1084.8,1084.4z M1084.8,750.6c-88.3,0-160.2,73-160.2,162.7s71.8,162.7,160.2,162.7
				c88.3,0,160.2-73,160.2-162.7S1173.1,750.6,1084.8,750.6z"/>
		</g>
		<path d="M1083.9,573.6c-190.6,0-345.7,154.2-345.7,343.7s155.1,343.7,345.7,343.7c190.6,0,345.7-154.2,345.7-343.7
			S1274.5,573.6,1083.9,573.6z M923,1185.4l-10.5,18c-14.1-8.4-27.6-17.8-40.2-28.1l13.3-15.8C897.4,1169,909.9,1177.6,923,1185.4z
			 M930.9,1189.9c13.2,7.3,27,13.7,41.3,19.1l-7.2,19.7c-15.4-5.8-30.3-12.8-44.5-20.7L930.9,1189.9z M980.9,1212.1
			c14.2,4.9,28.9,8.8,44,11.7l-3.7,20.7c-16.3-3.1-32.2-7.3-47.5-12.7L980.9,1212.1z M1034,1225.4c14.8,2.3,29.9,3.7,45.3,3.9v21.1
			c-16.7-0.2-33-1.7-49-4.2L1034,1225.4z M1088.5,1229.3c15.4-0.2,30.5-1.5,45.3-3.9l3.7,20.7c-16,2.6-32.4,4-49,4.2V1229.3z
			 M1142.9,1223.8c15.1-2.8,29.7-6.8,44-11.7l7.2,19.7c-15.4,5.3-31.2,9.6-47.5,12.7L1142.9,1223.8z M1195.6,1209
			c14.3-5.4,28.1-11.8,41.3-19.1l10.5,18c-14.2,8-29.1,14.9-44.6,20.7L1195.6,1209z M1244.8,1185.4c13.1-7.7,25.6-16.4,37.4-25.9
			l13.3,15.8c-12.7,10.3-26.1,19.7-40.2,28.1L1244.8,1185.4z M1083.9,1219.6c-168.7,0-306-136.6-306-304.4
			c0-167.9,137.3-304.4,306-304.4c168.7,0,306,136.6,306,304.4C1389.9,1083,1252.6,1219.6,1083.9,1219.6z M811.8,755.8l-15.5-8.9
			c8.4-13.9,17.8-27.2,28.1-39.8l13.7,11C828.4,730,819.6,742.6,811.8,755.8z M807.2,763.8c-7.4,13.3-13.8,27.2-19.2,41.6l-17.2-6.2
			c5.9-15.3,12.9-30.1,20.8-44.3L807.2,763.8z M784.9,814c-4.9,14.3-8.8,29.1-11.6,44.2l-18.4-3.2c3.1-16.2,7.4-32,12.7-47.2
			L784.9,814z M771.7,867.3c-2.3,14.8-3.5,30-3.6,45.5H749c0.2-16.6,1.7-32.8,4.3-48.7L771.7,867.3z M768.2,921.9
			c0.3,15.4,1.8,30.6,4.3,45.4l-19.2,3.4c-2.6-15.9-4-32.2-4.3-48.7H768.2z M774.1,976.3c3,15,7.1,29.7,12.1,43.9l-18.6,6.7
			c-5.4-15.3-9.6-31-12.7-47.2L774.1,976.3z M789.5,1028.8c5.6,14.2,12.1,27.9,19.6,41l-17.5,10c-8-14.2-15-28.9-20.8-44.3
			L789.5,1028.8z M813.8,1077.7c7.9,13,16.8,25.3,26.4,37l-15.7,13.1c-10.4-12.6-19.8-26-28.3-40L813.8,1077.7z M1023.8,606.6
			l-2.8-16.5c15.6-3,31.7-4.8,48-5.6l0,16.7C1053.6,602,1038.5,603.8,1023.8,606.6z M1014.7,608.5c-12,2.7-23.8,6.1-35.3,10.1
			l-5.8-15.8c12.4-4.3,25.2-7.9,38.3-10.8L1014.7,608.5z M970.8,621.7c-14.5,5.5-28.4,12.1-41.8,19.6l-8.5-14.7
			c14.2-7.9,29.1-14.9,44.5-20.7L970.8,621.7z M921,646c-13.2,7.9-25.8,16.8-37.7,26.6l-11.1-13.2c12.7-10.3,26.1-19.7,40.2-28.1
			L921,646z M1246.7,646l8.5-14.7c14.1,8.4,27.6,17.8,40.2,28.1l-11.1,13.2C1272.6,662.8,1260,653.9,1246.7,646z M1238.8,641.4
			c-13.4-7.5-27.3-14.1-41.8-19.6l5.8-15.8c15.4,5.8,30.3,12.8,44.6,20.7L1238.8,641.4z M1188.3,618.6
			c-17.7-6.2-36.1-10.8-55.1-13.8l2.9-16.4c19.9,3.1,39.3,8,57.9,14.5L1188.3,618.6z M1399.7,912.7c-0.1-15.4-1.4-30.6-3.6-45.5
			l18.5-3.2c2.6,15.9,4,32.2,4.3,48.7H1399.7z M1394.5,858.2c-2.8-15.1-6.7-29.9-11.6-44.2l17.3-6.2c5.4,15.3,9.6,31.1,12.7,47.2
			L1394.5,858.2z M1379.8,805.3c-5.4-14.4-11.8-28.3-19.2-41.6l15.6-8.9c8,14.2,15,29,20.8,44.3L1379.8,805.3z M1356,755.8
			c-7.8-13.2-16.6-25.8-26.2-37.6l13.5-11.3c10.4,12.6,19.8,26,28.3,40L1356,755.8z M1354,1077.7l17.5,10.1
			c-8.4,14-17.9,27.4-28.3,40l-15.7-13.1C1337.3,1103.1,1346.1,1090.7,1354,1077.7z M1358.7,1069.8c7.5-13.1,14.1-26.8,19.6-41
			l18.7,6.8c-5.9,15.3-12.9,30.1-20.8,44.3L1358.7,1069.8z M1381.5,1020.2c5.1-14.2,9.1-28.8,12.1-43.9l19.2,3.4
			c-3.1,16.2-7.4,32-12.7,47.2L1381.5,1020.2z M1414.5,970.6l-19.2-3.4c2.5-14.8,3.9-29.9,4.3-45.4h19.2
			C1418.6,938.5,1417.1,954.8,1414.5,970.6z M1337.3,699.9l-13.5,11.2c-10-11.6-20.8-22.5-32.4-32.6l11.1-13.2
			C1315,676,1326.6,687.5,1337.3,699.9z M1127.1,587l-2.9,16.4c-13.2-1.7-26.6-2.5-40.3-2.5c-1.9,0-3.8,0-5.7,0.1l0-16.6
			c1.9,0,3.8-0.1,5.7-0.1C1098.5,584.3,1112.9,585.2,1127.1,587z M865.2,665.3l11.1,13.2c-11.7,10.2-22.7,21.2-32.8,33l-13.7-11
			C840.8,687.9,852.6,676.1,865.2,665.3z M830.4,1134.8l15.7-13.1c10,11.4,20.8,22,32.4,31.9l-13.3,15.8
			C852.8,1158.7,841.2,1147.2,830.4,1134.8z M1302.6,1169.4l-13.3-15.8c11.5-9.8,22.4-20.5,32.4-31.9l15.7,13.1
			C1326.6,1147.2,1315,1158.7,1302.6,1169.4z"/>
		<g>
			<g>
				<g>
					<g>
						<g>
							<path d="M932,640.1c-0.1,0.1-0.2,0.1-0.3,0.2l151.9,270.5l36.6-20.4L932,640.1z"/>
						</g>
					</g>
					<g>
						<g>
							<path d="M931.7,640.3c-0.1,0.1-0.2,0.1-0.3,0.1L1047,931.2l36.6-20.4L931.7,640.3z"/>
						</g>
					</g>
				</g>
				<g>
					<g>
						<g>
							<polygon points="1354.4,760.2 1083.6,910.8 1104,947.4 							"/>
						</g>
					</g>
					<g>
						<g>
							<polygon points="1354.4,760.2 1083.6,910.8 1063.2,874.2 							"/>
						</g>
					</g>
					<g>
						<g>
							<polygon points="1354.4,760.2 1083.6,910.8 1093.9,865.5 							"/>
						</g>
					</g>
				</g>
				<g>
					<g>
						<g>
							<polygon points="1234.8,1182.8 1083.6,910.8 1047,931.2 							"/>
						</g>
					</g>
					<g>
						<g>
							<polygon points="1234.8,1182.8 1083.6,910.8 1120.2,890.3 							"/>
						</g>
					</g>
					<g>
						<g>
							<polygon points="1234.8,1182.8 1083.6,910.8 1128.8,921.1 							"/>
						</g>
					</g>
				</g>
				<g>
					<g>
						<g>
							<polygon points="809.2,1064.4 1083.6,910.8 1063.2,874.2 							"/>
						</g>
					</g>
					<g>
						<g>
							<polygon points="809.2,1064.4 1083.6,910.8 1104,947.4 							"/>
						</g>
					</g>
					<g>
						<g>
							<polygon points="809.2,1064.4 1083.6,910.8 1073.3,956 							"/>
						</g>
					</g>
				</g>
				<g>
					<g>
						<path d="M931.7,640.3c-0.1,0-0.2,0.1-0.3,0.1l106.9,260l45.2,10.3L931.7,640.3z"/>
					</g>
				</g>
			</g>
			<g>
				<g>
					<g>
						<polygon class="st0" points="1084.7,909.3 1329.4,771 1096.2,867.7 						"/>
					</g>
				</g>
				<g>
					<g>
						<polygon class="st0" points="1224,1157.7 1126.7,923.4 1085,911.8 						"/>
					</g>
				</g>
				<g>
					<g>
						<polygon class="st0" points="1082.5,912.2 834.2,1053.5 1071,953.9 						"/>
					</g>
				</g>
				<g>
					<g>
						<polygon class="st0" points="941.4,663.2 1040.5,898.1 1082.2,909.7 						"/>
					</g>
				</g>
			</g>
		</g>
		<g>
			<g>
				<g>
					<g>
						<g>
							<polygon points="826.3,746.5 1090,914.3 1112.6,879 							"/>
						</g>
					</g>
					<g>
						<g>
							<polygon points="826.3,746.5 1090,914.3 1067.4,949.6 							"/>
						</g>
					</g>
				</g>
				<g>
					<g>
						<g>
							<polygon points="1257.5,653.7 1090,914.3 1125.3,936.9 							"/>
						</g>
					</g>
					<g>
						<g>
							<polygon points="1257.5,653.7 1090,914.3 1054.7,891.7 							"/>
						</g>
					</g>
					<g>
						<g>
							<polygon points="1257.5,653.7 1090,914.3 1077.7,869.6 							"/>
						</g>
					</g>
				</g>
				<g>
					<g>
						<g>
							<path d="M1348.4,1080.4l-258.4-166l-22.6,35.3l280.8,131.2C1348.2,1080.7,1348.3,1080.5,1348.4,1080.4z"/>
						</g>
					</g>
					<g>
						<g>
							<path d="M1348.7,1079.9L1112.6,879l-22.6,35.3l258.4,166C1348.5,1080.2,1348.6,1080,1348.7,1079.9z"/>
						</g>
					</g>
					<g>
						<g>
							<path d="M1348.7,1079.9L1134.7,902l-44.7,12.3l258.4,166C1348.5,1080.2,1348.6,1080.1,1348.7,1079.9z"/>
						</g>
					</g>
				</g>
				<g>
					<g>
						<g>
							<polygon points="920.8,1179.4 1090,914.3 1054.7,891.7 							"/>
						</g>
					</g>
					<g>
						<g>
							<polygon points="920.8,1179.4 1090,914.3 1125.3,936.9 							"/>
						</g>
					</g>
					<g>
						<g>
							<polygon points="920.8,1179.4 1090,914.3 1102.3,959.1 							"/>
						</g>
					</g>
				</g>
				<g>
					<g>
						<polygon points="826.3,746.5 1090,914.3 1045.3,926.6 						"/>
					</g>
				</g>
			</g>
			<g>
				<g>
					<g>
						<polygon class="st0" points="1090.3,912.6 1240.6,675 1080.8,870.4 						"/>
					</g>
				</g>
				<g>
					<g>
						<polygon class="st0" points="1330.5,1065.7 1134,905.1 1091.8,914.6 						"/>
					</g>
				</g>
				<g>
					<g>
						<polygon class="st0" points="1089.7,916.1 937.7,1158 1099.3,958.3 						"/>
					</g>
				</g>
				<g>
					<g>
						<polygon class="st0" points="847.7,763.4 1046.1,923.6 1088.3,914.1 						"/>
					</g>
				</g>
			</g>
		</g>
		<g>
			<g>
				<g>
					<g>
						<g>
							<polygon points="647.1,913.7 1082.8,912.7 1082.8,854.3 							"/>
						</g>
					</g>
					<g>
						<g>
							<polygon points="647.1,913.7 1082.8,912.7 1082.8,971.2 							"/>
						</g>
					</g>
				</g>
				<g>
					<g>
						<g>
							<polygon points="1083.7,480.9 1082.8,912.7 1141.2,912.7 							"/>
						</g>
					</g>
					<g>
						<g>
							<polygon points="1083.7,480.9 1082.8,912.7 1024.4,912.7 							"/>
						</g>
					</g>
					<g>
						<g>
							<polygon points="1083.7,480.9 1082.8,912.7 1034.8,869.5 							"/>
						</g>
					</g>
				</g>
				<g>
					<g>
						<g>
							<polygon points="1516.5,913.6 1082.8,912.7 1082.8,971.2 							"/>
						</g>
					</g>
					<g>
						<g>
							<polygon points="1516.5,913.6 1082.8,912.7 1082.8,854.3 							"/>
						</g>
					</g>
					<g>
						<g>
							<polygon points="1516.5,913.6 1082.8,912.7 1126.1,864.7 							"/>
						</g>
					</g>
				</g>
				<g>
					<g>
						<g>
							<polygon points="1083.2,1351.1 1082.8,912.7 1024.4,912.7 							"/>
						</g>
					</g>
					<g>
						<g>
							<polygon points="1083.2,1351.1 1082.8,912.7 1141.2,912.7 							"/>
						</g>
					</g>
					<g>
						<g>
							<polygon points="1083.2,1351.1 1082.8,912.7 1130.8,956 							"/>
						</g>
					</g>
				</g>
				<g>
					<g>
						<polygon points="647.1,913.7 1082.8,912.7 1039.5,960.8 						"/>
					</g>
				</g>
			</g>
			<g>
				<g>
					<g>
						<polygon class="st0" points="1081.8,910.5 1079.9,518.8 1038.9,868.1 						"/>
					</g>
				</g>
				<g>
					<g>
						<polygon class="st0" points="1478.7,909.8 1127.4,868.9 1085.1,911.7 						"/>
					</g>
				</g>
				<g>
					<g>
						<polygon class="st0" points="1083.8,915 1087,1313.2 1126.7,957.4 						"/>
					</g>
				</g>
				<g>
					<g>
						<polygon class="st0" points="685,917.5 1038.1,956.6 1080.5,913.8 						"/>
					</g>
				</g>
			</g>
		</g>
		<g>
			<polygon points="890.3,594.7 886.2,552.5 916.3,579 			"/>
			<polygon points="760.1,721.2 738.2,685.6 777.9,696.6 			"/>
		</g>
		<polygon points="1405.4,716.3 1447.8,714.6 1419.7,743.2 		"/>
		<polygon points="1271.1,588.4 1304.2,562.8 1297.6,603.5 		"/>
		<polygon points="871.2,1229.4 865.1,1271.3 896.4,1246.3 		"/>
		<polygon points="745.2,1088.5 719.9,1121.7 760.4,1114.8 		"/>
		<polygon points="1406.1,1115.3 1448.4,1117 1420.3,1088.5 		"/>
		<polygon points="1261.4,1252.1 1295.5,1276.3 1287.3,1236 		"/>
		<g>
			<path d="M1085.5,442.8c-7.5,14.1-15.7,21.1-24.5,21.1c-4.6,0-8.3-1.7-11.1-5.1c-2.8-3.4-4.2-7.9-4.2-13.5c0-6.5,2.3-16.4,7-29.6
				c4.6-13.3,7-22.6,7-28.1c0-2.5-0.7-4.5-2.1-6.1c-1.4-1.6-3.1-2.4-5.2-2.4c-3.2,0-6.4,2-9.6,5.9c-3.2,3.9-4.8,7.9-4.8,12
				c0,3.1,1.4,6.4,4.3,9.8c1.2,1.4,1.8,2.4,1.8,2.9c0,0.6-0.9,2-2.7,4.2c-1.8,2.2-3.3,3.3-4.6,3.3c-1.4,0-2.9-1-4.7-3
				c-1.8-2-2.6-5-2.6-8.9c0-8,2.8-15.4,8.5-22c5.7-6.6,11.9-9.9,18.7-9.9c5.1,0,9.5,2.1,13,6.4c3.5,4.2,5.3,9.5,5.3,15.9
				c-0.1,6.7-2.2,16.1-6.5,28.3c-4.3,12.2-6.4,20.4-6.3,24.5c0,2,0.5,3.5,1.5,4.7c1,1.1,2.3,1.7,4,1.7c3.6,0,7.2-3,10.8-8.9
				c3.6-5.9,6.9-14.4,9.8-25.5l5.9-22c2.3-8.7,4.9-16.2,7.7-22.7c0.3-0.7,2.2-1.3,5.8-1.7c3.6-0.4,6.2-0.6,7.8-0.6
				c1.6,0,2.4,0.3,2.4,1l-11.5,43.7c-3.3,12.8-4.9,22.2-4.9,28.1c0,2.6,0.5,4.6,1.6,6.2c1.1,1.5,2.5,2.3,4.4,2.3
				c2.7,0,6.4-2.2,11.1-6.7c4.7-4.4,8.6-10.1,11.9-17c3.2-6.9,4.8-14,4.8-21.2c0-7.7-1.9-15.4-5.6-23c-1-2.2-1.6-3.6-1.6-4.1
				c0-1.8,1.7-3.8,5.2-5.9c3.4-2.2,5.9-3.3,7.4-3.3c1.4,0,2.8,1.9,4.3,5.7c1.4,3.8,2.2,7.7,2.2,11.9c0,11-2.6,22.2-7.7,33.7
				c-5.1,11.5-11.5,20.9-19.1,28.3c-7.6,7.4-14.5,11.1-20.7,11.1c-4.4,0-7.8-1.8-10.4-5.3C1086.6,455.1,1085.4,449.8,1085.5,442.8z"
				/>
		</g>
		<g>
			<path d="M1126.7,1440.6c-9.3,10-17.8,15.1-25.5,15.1c-4.7,0-8.2-2.3-10.7-6.8c-2.4-4.5-3.7-10.5-3.7-18.1
				c0-5.8,1.2-13.9,3.6-24.1c2.4-10.2,5.5-18.8,9.3-25.8l3.6-6.5c-5,5.2-9,10.8-12.2,17c-3.2,6.2-7,14.8-11.4,25.8
				c-4.4,11.1-7.7,18.6-10,22.6c-2.3,4-4.4,7.3-6.5,9.8c-2.1,2.5-3.9,4.2-5.5,4.9c-1.6,0.8-4.4,1.1-8.4,1.1c-1.5,0-2.3-0.4-2.3-1.3
				c0-0.1,0.3-1.4,0.8-3.9c0.6-2.5,1.1-6.6,1.7-12.2c0.6-5.6,1-15.1,1.2-28.6c0.3-13.4,2.2-25,5.9-34.6c-3.9,4.5-7.9,14.8-12,31.1
				l-1.6,6.1c-4.3,17-9.2,28.4-14.8,34.4c-5.6,5.9-11,8.9-16.3,8.9c-3.3,0-6.2-1-8.7-3.1c-2.5-2.1-3.8-4.5-3.8-7.2
				c0-2.1,1.5-4.4,4.5-7c3-2.6,4.9-3.9,5.7-3.9c0.9,0,1.5,0.3,1.8,0.9c0.3,0.6,0.7,2.3,1.1,5.2c0.5,2.8,1.2,4.7,2.1,5.5
				c0.9,0.9,2.1,1.3,3.5,1.3c3.2,0,6.8-3.2,10.7-9.7c3.9-6.4,7.4-16.4,10.7-29.9l1.8-7.6c1.5-6.2,2.9-11.1,4.3-14.8
				c1.4-3.7,3.3-7.3,5.6-11c3.4-5.3,5.5-8.1,6.2-8.4c0.8-0.4,2.2-0.6,4.3-0.9s4.3-0.3,6.4-0.3c0.8,0,1.3,0.5,1.3,1.4
				c0,0.5-0.1,1.4-0.4,2.8c-0.8,5.8-1.2,11.7-1.2,17.6l0.1,16.8c0.1,14.6-1.1,26.4-3.5,35.3c2.2-2.7,5.4-9.5,9.6-20.6
				c6.1-15.7,11.6-27.5,16.6-35.4c2.4-3.8,5.2-7.4,8.6-10.9s5.7-5.3,7-5.6c4.4-0.8,8.2-1.3,11.2-1.3c1.1,0,1.7,0.3,1.7,0.9
				c0,0.9-0.7,2.8-2.1,5.9c-3.2,7.3-6.3,17.3-9.1,29.8c-2.8,12.5-4.2,22.5-4.3,29.9c0,8.4,2.6,12.6,7.7,12.6
				c4.2,0,9.1-3.5,14.9-10.6V1440.6z"/>
		</g>
		<g>
			<path d="M1558.1,946.2l8,3.4c2.6,1.1,4.7,1.9,6.3,2.3c1.6,0.4,3.2,0.6,4.7,0.6c6.9,0,12.5-4.5,16.7-13.6
				c4.2-9.1,6.3-18.8,6.3-29.2c0-11-2.7-19.8-8-26.5c-5.3-6.7-12.3-10-20.9-10c-6.9,0-13.3,2.5-19.4,7.4c-6,4.9-9,10.2-9,15.7
				c0,4.1,1.8,6.9,5.3,8.4c1.5,0.7,2.3,1.6,2.3,2.8c0,1.2-1.6,2.5-4.9,3.9c-3.3,1.4-5.3,2.1-6,2.1c-2.1,0-4-1.2-5.6-3.7
				c-1.6-2.5-2.4-5.2-2.4-8.2c0-8,4.2-15.5,12.5-22.7c8.3-7.2,19.1-10.7,32.5-10.7c12.8,0,22.9,3.5,30.5,10.5
				c7.6,7,11.4,16.4,11.4,28.2c0,9-2.3,17.6-7,25.6c-4.7,8.1-11,14.5-19,19.3c-7.9,4.8-16.4,7.1-25.2,7.1c-7.5,0-14.4-1.6-20.9-4.9
				c-5.2,3.3-9.7,4.9-13.6,4.9c-2.2,0-4-0.6-5.5-1.9c-1.5-1.3-2.2-2.8-2.2-4.6c0-2.9,1.5-5.4,4.6-7.4c3-2,6.9-3,11.4-3
				c3.3,0,6.4,0.5,9.3,1.6c2.6-2.2,4.4-4.8,5.4-7.8c1-3,1.9-8.4,2.9-16.1c1-7.7,2.5-13.8,4.5-18.2c2-4.4,5.1-8.1,9-11.1
				c4-3,8-4.7,12-5.2l2.4,3.3c-2.6,2.6-4.5,5.3-5.8,8s-2.4,8.5-3.4,17.5c-1,8.9-3,15.7-5.9,20.1
				C1568.5,938.8,1564.1,942.8,1558.1,946.2z"/>
		</g>
		<g>
			<path d="M626.6,935.1c-9.9,10-20,15.1-30.3,15.1c-3,0-5.9-0.4-8.7-1.2c-2.8-0.8-6.2-2.1-10.1-3.9c-4-1.8-7.5-3.2-10.5-4
				c-5.6,6.2-10.7,9.3-15.3,9.3c-1.6,0-2.9-0.5-3.9-1.6c-1-1-1.6-2.3-1.6-3.8c0-3.2,1.6-6,4.7-8.3c3.1-2.4,7.5-4.1,13.2-5
				c2.4-3.3,3.9-6.4,4.6-9.5c0.7-3.1,1.2-8.2,1.6-15.4c0.7-14.7,4.6-26.2,11.8-34.5c7.2-8.3,14.9-12.5,23.3-12.5
				c5.8,0,10.5,1.8,14.2,5.5c3.7,3.6,5.5,8.3,5.5,14c0,6.5-1.9,12.3-5.8,17.2c-3.9,4.9-8.3,7.4-13.4,7.4c-2.6,0-4.7-0.7-6.2-2.2
				c-1.5-1.4-2.3-3.4-2.3-5.9c0-1.3,0.3-2.8,0.8-4.5c1.1,1.3,2.5,1.9,4.3,1.9c2.8,0,5.3-1.7,7.4-5.1c2.1-3.4,3.2-7.4,3.2-12.1
				c0-3.6-0.8-6.4-2.4-8.5c-1.6-2.1-3.9-3.1-6.7-3.1c-3.4,0-6.1,1.2-8,3.7c-1.9,2.5-3.2,5.4-4,8.8c-0.8,3.4-1.5,8.9-2.4,16.6
				c-0.8,7.6-2.3,14.4-4.3,20.3c-2,5.9-5.7,11.7-11.1,17.4c3.5-0.3,6.6,0,9.2,0.6c2.6,0.7,6.3,1.9,11.2,3.8c4.9,1.9,9,2.8,12.5,2.8
				c6.8,0,13.4-3.5,19.6-10.5V935.1z"/>
		</g>
	</g>
	<g>
		<path d="M489.1,1728.3c-6.2,6.4-11.7,11.1-16.8,14.1c-5,3-10.2,4.5-15.5,4.5c-6,0-11-2.6-15-7.9c-4.1-5.2-6.1-12.9-6.1-23
			c0-4.2,0.5-9.7,1.5-16.4c-7.5,0.6-12.2,1-13.9,1.1c-3.2,16.7-8.8,28.5-16.8,35.6c-8,7.1-17,10.6-27.1,10.6
			c-7.5,0-13.6-1.7-18.5-5.2s-7.3-6.8-7.3-10c0-2.4,1.8-5.1,5.4-8.1c3.6-3.1,6.1-4.6,7.5-4.6c2,0,3,2.1,3,6.4
			c0,10.4,3.5,15.7,10.5,15.7c5.1,0,9.4-2.9,12.8-8.6c3.4-5.8,6.1-15.3,8.1-28.6c-6,0.9-12,3.8-18,8.9c-0.4-0.6-0.8-2.7-1.1-6.5
			c5.3-5.9,12.3-9.9,21.1-12.3c1.7-8.2,3.9-14.8,6.6-20c2.7-5.1,9.5-13.1,20.4-23.8c-5.2,2.1-9.5,3.1-12.9,3.1
			c-2.2,0-4.9-0.6-8.1-1.7c-3.3-1.2-5.9-1.7-7.8-1.7c-4.3,0-7.8,1.6-10.5,4.7c-2.7,3.1-4.1,6.3-4.1,9.5c0,3.2,1.7,6.2,5.1,8.9
			c1.6,1,2.3,1.9,2.3,2.7c0,1.5-1,3.4-3,5.6c-2,2.2-3.9,3.4-5.7,3.4c-2,0-3.8-1.4-5.4-4.2c-1.7-2.8-2.5-5.9-2.5-9.3
			c0-7.5,3.7-15,11-22.5c7.3-7.5,14.6-11.3,21.8-11.3c1.6,0,4.6,0.6,9.1,1.9c4.5,1.3,7.5,1.9,9.2,1.9c3.2,0,6.4-1.4,9.5-4.2
			c3.8,2,5.8,3.3,5.8,3.8c0,0.7-1.5,2.6-4.6,5.6c-3,3.1-5.5,7.4-7.5,13.1c-2,5.7-4,16.2-6.2,31.6c5.8-0.3,10.9-0.7,15.2-1.4
			c2.3-7.8,4.8-14.4,7.5-19.8c2.7-5.3,5.7-10.7,9.2-16.2c3.5-5.4,6.1-8.7,7.9-10c1.8-1.2,5.8-2.6,11.7-4.2c6-1.6,9-2.3,9-2.3
			c0.6,0,0.9,0.2,0.9,0.5c0,0.8-1.1,2.7-3.4,5.9c-2.3,3.2-5.5,8.8-9.8,17c-4.3,8.2-7.9,16.9-10.8,26.2c5.5-0.9,11-3.3,16.7-7.3
			c0.7,0.3,1.1,0.7,1.2,1.3c0.2,0.6,0.2,2,0.2,4.4c-4.3,5.2-11.3,9-20.9,11.2c-2.1,9.8-3.1,16.8-3.1,20.9c0,4.9,1.1,8.9,3.2,11.8
			c2.2,2.9,5.1,4.3,8.7,4.3c2.9,0,5.9-0.9,8.8-2.8c2.9-1.9,6.7-5.5,11.3-10.9V1728.3z"/>
		<path d="M569.9,1728.2c-6.7,6.3-12.2,11-16.7,14c-4.5,3-8.5,4.5-12.1,4.5c-4,0-7.1-1.6-9.2-4.8c-2.1-3.2-3.2-7.5-3.2-12.9
			c-5.6,6.1-10.5,10.6-14.9,13.5c-4.4,2.9-8.7,4.4-12.9,4.4c-3.8,0-6.9-1.6-9.2-4.8c-2.3-3.2-3.5-7.5-3.5-12.9
			c0-10.5,3.5-25.3,10.6-44.4l20.2-4c-8.3,24.2-12.5,39.7-12.5,46.6c0,4.8,1.8,7.3,5.4,7.3c2.6,0,5.9-2.1,9.8-6.4
			c3.9-4.3,6.3-8,7.3-11.2l9.9-32.2l20.6-4.2c-4.8,15.2-8,25.9-9.8,32c-1.8,6.2-2.7,10.5-2.7,12.9c0,4.7,1.6,7.1,4.8,7.1
			c2.6,0,6.5-2.4,11.7-7.2l6.4-6V1728.2z"/>
		<path d="M681.3,1728.2c-6.3,6.2-11.7,10.8-16.2,13.8c-4.5,3.1-8.9,4.6-13.1,4.6c-3.3,0-6-1.1-7.9-3.4c-1.9-2.3-2.9-5.4-2.9-9.3
			c0-5.4,1.4-12.4,4.1-20.7c2.7-8.4,4.1-13.5,4.1-15.3c0-1.6-0.8-2.4-2.5-2.4c-0.5,0-1.1,0.2-1.8,0.5c-0.8,0.4-1.6,0.9-2.6,1.5
			c-1,0.7-2,1.6-3.1,2.6c-1.1,1-2.3,2.2-3.5,3.5c-1.3,1.3-2.6,2.8-3.9,4.3c-2.2,2.6-3.5,4.8-3.9,6.6l-2.5,10.8l-4.6,17.9l-19.2,3.5
			l7.3-31.2c0.6-2.3,1.2-5.6,2-10s1.1-7,1.1-7.9c0-1.7-0.6-2.6-1.7-2.6c-0.4,0-0.9,0.2-1.5,0.5c-0.8,0.4-1.6,0.9-2.6,1.6
			c-1.1,0.8-2.3,1.8-3.6,2.9c-1.4,1.2-2.8,2.6-4.4,4.2c-1.7,1.7-3.4,3.5-5.1,5.5c-2.4,2.7-3.9,5.9-4.5,9.5
			c-0.8,4.3-1.4,8.2-1.7,11.7c-0.4,3.4-0.6,7.3-0.6,11.5l-16.8,4c-0.4-5.8-0.6-10.6-0.6-14.5c0-9.2,1-17.3,2.9-24.1
			c1.9-6.8,5-14.8,9.4-24l18.3-3.6c-3.3,8.2-5.8,16.2-7.6,23.8c13.6-15.8,24-23.7,31.2-23.7c2.6,0,4.8,1.1,6.4,3.2
			c1.6,2.1,2.5,5,2.5,8.4c0,1.6-0.3,4.6-0.8,8.9c8.5-8.5,14.6-14.1,18.4-16.7c3.7-2.6,7.1-3.9,10.3-3.9c2.8,0,5,1.1,6.8,3.3
			c1.8,2.2,2.6,5,2.6,8.5c0,5.4-1.5,12.3-4.5,20.8c-3,8.5-4.5,14.1-4.5,16.8c0,2.8,1,4.2,3.1,4.2c1.3,0,3.1-0.9,5.5-2.6
			c2.3-1.7,6.4-5.7,12.3-12V1728.2z"/>
		<path d="M762.1,1728.2c-8.1,7.7-13.9,12.7-17.3,15s-6.8,3.5-10,3.5c-8,0-11.7-7-11.3-21.1c-5,7.2-9.7,12.5-14,16
			c-4.3,3.4-8.7,5.1-13.2,5.1c-4.4,0-8.2-2.1-11.3-6.2c-3.1-4.2-4.7-9.3-4.7-15.3c0-7.6,2.1-14.8,6.2-21.6c4.2-6.9,9.5-12.4,16-16.7
			s12.3-6.4,17.3-6.4c6.3,0,10.7,2.9,13.2,8.7l15.5-8.6h4.2l-6.7,22.2c-3.4,11.2-5.2,18.8-5.2,22.9c0,4.3,1.5,6.5,4.6,6.5
			c2,0,4.1-1,6.5-3.1c2.4-2.1,5.7-5.3,10-9.6V1728.2z M706.7,1732.4c5,0,9.8-4.3,14.3-12.9c4.5-8.6,6.7-16.5,6.7-23.8
			c0-2.8-0.6-5-1.9-6.6c-1.3-1.6-3-2.4-5.1-2.4c-5,0-9.8,4.3-14.3,12.9c-4.5,8.6-6.8,16.5-6.8,23.7c0,2.7,0.7,4.9,2,6.6
			C702.9,1731.5,704.6,1732.4,706.7,1732.4z"/>
		<path d="M836.3,1728.2c-11.7,12.3-21.6,18.5-30,18.5c-3.4,0-6.1-1.2-8.2-3.6c-2.1-2.4-3.1-5.5-3.1-9.5c0-5.4,2.2-13.6,6.7-24.7
			c2.4-6,3.6-9.7,3.6-11.4c0-1.6-0.6-2.4-1.9-2.4c-0.7,0-1.6,0.4-2.8,1.1c-1.1,0.7-2.3,1.7-3.7,3c-1.3,1.2-2.7,2.6-4.2,4.2
			c-1.4,1.4-2.8,3-4.4,4.8l-4.2,4.9c-1.9,2.3-3,4.7-3.5,7.2c-0.8,4.3-1.3,8.2-1.5,11.8c-0.2,2.7-0.2,6.3-0.2,10.8l-16.7,3.9
			c-0.6-6.8-0.8-11.9-0.8-15.2c0-8.1,0.9-15.8,2.8-23.1c1.9-7.3,4.9-15.4,9.1-24.5l18.5-3.6c-3.9,10.4-6.4,18.7-7.6,24.7
			c8.3-9.2,14.8-15.6,19.7-19.2c4.9-3.6,9.2-5.3,13-5.3c2.6,0,4.7,1,6.4,2.9c1.7,1.9,2.6,4.4,2.6,7.3c0,4.8-2.2,12.8-6.5,23.9
			c-3,7.6-4.5,12.6-4.5,14.8c0,3,1.2,4.6,3.7,4.6c3.7,0,9.7-4.9,17.9-14.6V1728.2z"/>
		<path d="M1030.1,1728.2c-11.3,12.2-21.6,18.2-30.9,18.2c-5.7,0-10-2.7-12.9-8.2c-3-5.4-4.4-12.7-4.4-21.9c0-7.1,1.4-16.8,4.4-29.1
			c2.9-12.4,6.6-22.8,11.2-31.2l4.4-7.9c-6,6.3-10.9,13.1-14.8,20.5c-3.8,7.4-8.4,17.8-13.7,31.2c-5.3,13.4-9.3,22.5-12.1,27.3
			s-5.3,8.8-7.8,11.8c-2.5,3.1-4.7,5-6.7,5.9c-1.9,0.9-5.3,1.4-10.2,1.4c-1.9,0-2.8-0.5-2.8-1.5c0-0.1,0.3-1.7,1-4.8
			c0.7-3.1,1.3-8,2-14.8c0.7-6.8,1.2-18.3,1.5-34.6c0.3-16.3,2.7-30.2,7.1-41.8c-4.7,5.4-9.6,18-14.5,37.7l-1.9,7.4
			c-5.2,20.5-11.2,34.4-17.9,41.6c-6.7,7.2-13.3,10.8-19.8,10.8c-4,0-7.5-1.3-10.5-3.8c-3-2.5-4.5-5.4-4.5-8.7
			c0-2.5,1.8-5.3,5.5-8.5c3.6-3.1,5.9-4.7,6.9-4.7c1.1,0,1.8,0.4,2.2,1.1c0.4,0.8,0.8,2.8,1.4,6.2c0.6,3.4,1.4,5.6,2.5,6.7
			c1.1,1,2.6,1.6,4.3,1.6c3.9,0,8.2-3.9,12.9-11.7c4.7-7.8,9-19.8,12.9-36.1l2.2-9.2c1.8-7.5,3.5-13.4,5.2-17.9
			c1.7-4.4,4-8.9,6.8-13.3c4.1-6.4,6.6-9.8,7.5-10.2c0.9-0.4,2.7-0.8,5.3-1.1c2.6-0.3,5.1-0.4,7.7-0.4c1,0,1.5,0.6,1.5,1.7
			c0,0.6-0.2,1.7-0.5,3.4c-1,7.1-1.5,14.2-1.4,21.3l0.2,20.3c0.1,17.7-1.3,31.9-4.2,42.8c2.7-3.2,6.6-11.6,11.7-25
			c7.4-19,14.1-33.3,20.1-42.8c2.9-4.6,6.3-9,10.4-13.2c4.1-4.2,6.9-6.5,8.4-6.8c5.3-1,9.9-1.5,13.5-1.5c1.4,0,2,0.4,2,1.1
			c0,1.1-0.8,3.4-2.5,7.1c-3.9,8.9-7.6,20.9-11,36c-3.4,15.1-5.1,27.2-5.1,36.2c0,10.1,3.1,15.2,9.3,15.2c5,0,11-4.3,18-12.9V1728.2
			z"/>
		<path d="M1110.8,1728.2c-8.1,7.7-13.9,12.7-17.3,15s-6.8,3.5-10,3.5c-8,0-11.7-7-11.3-21.1c-5,7.2-9.7,12.5-14,16
			c-4.3,3.4-8.7,5.1-13.2,5.1c-4.4,0-8.2-2.1-11.3-6.2c-3.1-4.2-4.7-9.3-4.7-15.3c0-7.6,2.1-14.8,6.2-21.6c4.2-6.9,9.5-12.4,16-16.7
			s12.3-6.4,17.3-6.4c6.3,0,10.7,2.9,13.2,8.7l15.5-8.6h4.2l-6.7,22.2c-3.4,11.2-5.2,18.8-5.2,22.9c0,4.3,1.5,6.5,4.6,6.5
			c2,0,4.1-1,6.5-3.1c2.4-2.1,5.7-5.3,10-9.6V1728.2z M1055.4,1732.4c5,0,9.8-4.3,14.3-12.9c4.5-8.6,6.7-16.5,6.7-23.8
			c0-2.8-0.6-5-1.9-6.6c-1.3-1.6-3-2.4-5.1-2.4c-5,0-9.8,4.3-14.3,12.9c-4.5,8.6-6.8,16.5-6.8,23.7c0,2.7,0.7,4.9,2,6.6
			C1051.7,1731.5,1053.4,1732.4,1055.4,1732.4z"/>
		<path d="M1167.4,1728.2c-6.5,6.4-12.4,11-17.7,14c-5.4,3-11,4.5-16.8,4.5c-6.6,0-12-2.1-16.2-6.4c-4.3-4.3-6.4-9.7-6.4-16.2
			c0-10.7,3.9-20.7,11.8-29.8c7.8-9.1,16.3-13.7,25.5-13.7c4.5,0,8.1,1.2,11,3.7c2.8,2.5,4.2,5.7,4.2,9.7c0,1.4-0.3,2.5-0.8,3.2
			c-0.5,0.7-1.5,1.4-3,2.1l-8.8,4.2c-1.1,0.5-1.8,0.8-2.3,0.8c-0.7,0-1.1-0.5-1.1-1.5c0-0.4,0.2-1.7,0.5-4c0.3-2.2,0.5-3.6,0.5-4.1
			c0-2.2-0.5-4-1.4-5.4s-2.2-2-3.7-2c-3.7,0-7.1,2.7-10.1,8.2c-3.1,5.4-4.6,11.7-4.6,18.6c0,6,1.4,10.8,4.3,14.4
			c2.9,3.6,6.7,5.4,11.5,5.4c4.1,0,7.9-1.2,11.5-3.5c3.6-2.3,7.7-5.9,12.3-10.8V1728.2z"/>
		<path d="M1241.7,1728.2c-12,12.4-21.8,18.6-29.5,18.6c-3.4,0-6.3-1.2-8.5-3.5c-2.2-2.3-3.4-5.3-3.4-8.9c0-6.1,2.3-14.6,7-25.6
			c2.5-6,3.7-9.8,3.7-11.7c0-2.1-1-3.1-3-3.1c-2,0-4.9,1.4-8.8,4.1c-3.8,2.8-7.9,6.5-12.1,11.2c-1.8,9.3-2.6,20.4-2.6,33.5
			l-16.9,3.9c-0.7-5.3-1-11-1-17.3c0-15,2.1-29,6.2-42c4.1-13,10.6-26.7,19.5-41.2c6.6-2.7,12.4-4.9,17.3-6.5
			c4.9-1.7,7.7-2.5,8.4-2.5c1.3,0,2.4,1.1,3.3,3.2s1.4,4.8,1.4,7.9c0,5.3-1.6,11.3-4.9,17.7c-3.3,6.5-8.4,14.3-15.4,23.5
			c6.7-3.9,11.2-6.3,13.4-7.3c2.2-1,4.5-1.5,6.8-1.5c2.6,0,4.7,0.9,6.3,2.8c1.6,1.8,2.4,4.3,2.4,7.3c0,4.5-1.8,11.6-5.4,21.1
			c-3.6,9.5-5.4,15.5-5.4,17.9c0,1.1,0.3,2.1,1,3c0.7,0.9,1.5,1.3,2.4,1.3c3.2,0,9.2-4.9,17.9-14.6V1728.2z M1189.2,1697.2
			c18-20.9,27-36.4,27-46.3c0-3-0.8-4.5-2.5-4.5c-2.8,0-6.7,5-11.9,14.9C1196.7,1671.2,1192.5,1683.1,1189.2,1697.2z"/>
		<path d="M1278.9,1728.2c-11.8,12.4-20.6,18.6-26.5,18.6c-3.2,0-6-1.7-8.2-5c-2.2-3.3-3.3-7.5-3.3-12.4c0-10.7,3.6-25.6,10.9-44.7
			l19.2-4h0.9l-7.6,23.7c-3.1,9.8-4.7,16.8-4.7,21c0,1.7,0.4,3,1.1,4c0.7,1,1.7,1.6,2.8,1.6c2,0,3.9-0.7,5.9-2.2
			c2-1.4,5.1-4.6,9.4-9.3V1728.2z M1277.3,1651.1c0,12.1-4.5,18.2-13.4,18.2c-4.3,0-8-1.3-11.1-3.9c2.9-4.4,5.2-9.4,6.8-15
			c4,2.5,7.2,3.7,9.6,3.7C1272,1654.1,1274.7,1653.1,1277.3,1651.1z"/>
		<path d="M1353.2,1728.2c-11.7,12.3-21.6,18.5-30,18.5c-3.4,0-6.1-1.2-8.2-3.6c-2.1-2.4-3.1-5.5-3.1-9.5c0-5.4,2.2-13.6,6.7-24.7
			c2.4-6,3.6-9.7,3.6-11.4c0-1.6-0.6-2.4-1.9-2.4c-0.7,0-1.6,0.4-2.8,1.1c-1.1,0.7-2.3,1.7-3.7,3c-1.3,1.2-2.7,2.6-4.2,4.2
			c-1.4,1.4-2.8,3-4.4,4.8l-4.2,4.9c-1.9,2.3-3,4.7-3.5,7.2c-0.8,4.3-1.3,8.2-1.5,11.8c-0.2,2.7-0.2,6.3-0.2,10.8l-16.7,3.9
			c-0.6-6.8-0.8-11.9-0.8-15.2c0-8.1,0.9-15.8,2.8-23.1c1.9-7.3,4.9-15.4,9.1-24.5l18.5-3.6c-3.9,10.4-6.4,18.7-7.6,24.7
			c8.3-9.2,14.8-15.6,19.7-19.2c4.9-3.6,9.2-5.3,13-5.3c2.6,0,4.7,1,6.4,2.9s2.6,4.4,2.6,7.3c0,4.8-2.2,12.8-6.5,23.9
			c-3,7.6-4.5,12.6-4.5,14.8c0,3,1.2,4.6,3.7,4.6c3.7,0,9.7-4.9,17.9-14.6V1728.2z"/>
		<path d="M1409.7,1728.2c-6.4,6.3-12.2,11-17.3,14c-5.1,3-10.7,4.5-16.9,4.5c-6.9,0-12.4-2.2-16.6-6.6s-6.3-10.2-6.3-17.3
			c0-10.7,3.7-20.4,11.1-29c7.4-8.7,15.6-13,24.7-13c4.7,0,8.5,1.2,11.3,3.6c2.8,2.4,4.2,5.6,4.2,9.5c0,10.4-11.1,18.9-33.3,25.4
			c2,9.8,7.3,14.8,15.8,14.8c3.3,0,6.5-0.9,9.5-2.7c3-1.8,7.6-5.8,13.7-11.9V1728.2z M1370.1,1714.2c12.9-3.6,19.4-10.3,19.4-20.1
			c0-4.8-1.8-7.3-5.3-7.3c-3.3,0-6.5,2.5-9.5,7.6C1371.6,1699.5,1370.1,1706.1,1370.1,1714.2z"/>
		<path d="M1531.3,1656.6c-3.3,3-5.7,6.4-7.2,10.4c-1.5,4-3,12.2-4.6,24.7s-4.1,22.4-7.6,29.6c-3.5,7.2-9,13.2-16.6,18
			c-7.5,4.8-15.8,7.2-24.9,7.2c-6.4,0-11.6-1.6-15.6-4.8s-6-7.2-6-12.2c0-1.9,0.6-3.4,1.7-4.6c1.2-1.2,3.5-2.8,7.1-4.8
			c3.6-2,6-3,7.3-3c0.9,0,1.6,0.3,2.2,0.9c0.6,0.6,0.9,1.3,0.9,2.1c0,0.5-0.2,2.4-0.7,5.6c-0.5,3.2-0.7,5.1-0.7,5.8c0,6,2.5,9,7.6,9
			c5.7,0,10.5-3.3,14.4-10c3.9-6.7,6.7-17.1,8.4-31.3c1.7-14.2,4.4-24.2,7.9-30.1c3.5-5.9,7.7-10,12.4-12.5c4.7-2.4,8-3.7,9.8-3.7
			C1528.2,1653,1529.6,1654.2,1531.3,1656.6z M1517,1636.9c10.6,0,19.1,2.6,25.4,7.8c6.3,5.2,9.5,12.1,9.5,20.7c0,8-2.3,14.4-7,19.2
			c-4.7,4.8-8.7,7.2-12.1,7.2c-1.3,0-2.7-0.6-4.3-1.7c-1.6-1.1-2.4-2.1-2.4-3c0-0.5,1.2-2.3,3.6-5.4c5.5-6.9,8.3-13.7,8.3-20.4
			c0-5.7-1.9-10.2-5.8-13.6c-3.8-3.4-9-5-15.6-5c-9.9,0-18.8,3-26.9,9c-8,6-12,12.6-12,19.8c0,4.7,2.2,8,6.5,9.8
			c1.7,0.8,2.6,1.8,2.6,3.1c0,1.4-1.9,3-5.7,4.8s-6.4,2.7-7.9,2.7c-2.3,0-4.4-1.5-6.4-4.5c-2-3-3-6.3-3-9.8
			c0-9.5,5.1-18.6,15.3-27.4C1489.3,1641.3,1501.9,1636.9,1517,1636.9z"/>
		<path d="M1622.5,1728.2c-8.1,7.7-13.8,12.7-17.3,15s-6.8,3.5-10,3.5c-8,0-11.7-7-11.3-21.1c-5,7.2-9.7,12.5-14,16
			s-8.7,5.1-13.2,5.1c-4.4,0-8.2-2.1-11.3-6.2c-3.1-4.2-4.7-9.3-4.7-15.3c0-7.6,2.1-14.8,6.2-21.6c4.2-6.9,9.5-12.4,16-16.7
			s12.3-6.4,17.3-6.4c6.3,0,10.7,2.9,13.2,8.7l15.5-8.6h4.2l-6.7,22.2c-3.4,11.2-5.2,18.8-5.2,22.9c0,4.3,1.5,6.5,4.6,6.5
			c2,0,4.1-1,6.5-3.1c2.4-2.1,5.7-5.3,10-9.6V1728.2z M1567.1,1732.4c5,0,9.8-4.3,14.3-12.9c4.5-8.6,6.7-16.5,6.7-23.8
			c0-2.8-0.6-5-1.9-6.6c-1.3-1.6-3-2.4-5.1-2.4c-5,0-9.8,4.3-14.3,12.9c-4.5,8.6-6.8,16.5-6.8,23.7c0,2.7,0.7,4.9,2,6.6
			C1563.4,1731.5,1565.1,1732.4,1567.1,1732.4z"/>
		<path d="M1679.1,1728.2c-12.7,12.4-22.4,18.6-29.3,18.6c-3.1,0-5.7-1.3-7.8-3.9c-2.1-2.6-3.2-5.8-3.2-9.6
			c0-7.1,3.8-16.7,11.4-28.6c-3.7,1.9-7.8,3.3-12.3,4c-3.3,6.1-8.4,12.6-15.4,19.5h-1.7v-6.8c3.9-4.1,7.5-8.5,10.7-13.2
			c-4.3-1.9-6.5-4.8-6.5-8.6c0-3.9,1.3-8,4-12.5c2.6-4.4,6.3-6.6,10.9-6.6c3.9,0,5.9,2,5.9,6.1c0,3.2-1.1,7.7-3.4,13.6
			c8.4-0.9,15.7-7.3,21.9-19.2l6.9-0.3l-7,19.4c-2.9,8.2-4.8,13.7-5.7,16.7c-0.9,3-1.3,5.6-1.3,7.8c0,2.1,0.5,3.8,1.5,5.1
			c1,1.3,2.3,1.9,4,1.9c1.8,0,3.6-0.6,5.2-1.9c1.7-1.2,5.4-4.7,11.2-10.3V1728.2z"/>
		<path d="M1722.7,1728.2c-6.4,6.3-11.9,11-16.5,14c-4.6,3-9.1,4.5-13.2,4.5c-4.3,0-7.9-1.8-10.6-5.5c-2.7-3.7-4-8.5-4-14.4
			c0-5.2,1.3-12.2,3.9-20.8l3.2-11.5l-5.8,0.3l2.4-11.9l7.2-0.3l7.1-23.6l20.2-4.1l-7.8,26.3l10.7-0.6l-2.5,11.7l-11.7,0.9l-5,17
			c-1.8,5.9-2.6,10.6-2.6,14.1c0,2.4,0.6,4.3,1.8,5.8s2.7,2.2,4.6,2.2c2.6,0,5.1-0.8,7.7-2.5c2.5-1.6,6.2-5.1,11.1-10.3V1728.2z"/>
		<path d="M1803.4,1728.2c-6.4,6.2-16.6,12.6-30.7,19.1c-4.7,13.3-10,22.7-15.8,28.3c-5.9,5.5-12,8.3-18.3,8.3c-3.2,0-5.8-1-7.8-3
			c-1.9-2-2.9-4.6-2.9-7.9c0-9.9,9.1-18.9,27.3-27l4.6-16.3c-9.5,10.6-17.9,16-25.1,16c-3.9,0-7-1.6-9.4-4.8s-3.6-7.4-3.6-12.7
			c0-7.6,1.7-15.8,5-24.5l7.2-19.2l22-3.8l-9.4,22.5c-4.3,10.8-6.5,19-6.5,24.5c0,4.5,1.5,6.8,4.6,6.8c3.1,0,6.7-2.5,10.7-7.6
			c4-5,7.4-11.3,10.1-18.6l8.6-23.8l20.6-3.9l-19.7,59.2c11.6-5.3,21-12.1,28.4-20.3V1728.2z M1753,1753.5c-6.2,2.8-11,5.9-14.3,9.3
			c-3.4,3.5-5,6.8-5,10.2c0,3.4,1.4,5.1,4.3,5.1C1743.6,1778.1,1748.6,1769.9,1753,1753.5z"/>
	</g>
</g>
</svg>
