<?xml version="1.0" encoding="utf-8"?>
<!-- Generator: Adobe Illustrator 26.0.3, SVG Export Plug-In . SVG Version: 6.00 Build 0)  -->
<svg version="1.1" id="Logo" xmlns="http://www.w3.org/2000/svg" xmlns:xlink="http://www.w3.org/1999/xlink" x="0px" y="0px"
	 viewBox="0 0 2130 2130" style="enable-background:new 0 0 2130 2130;" xml:space="preserve">
<style type="text/css">
	.st0{fill:#FFFFFF;}
	.st1{fill-rule:evenodd;clip-rule:evenodd;}
</style>
<g id="Logo_00000129910822137359666970000012825230976817375360_">
	<g>
		<circle class="st0" cx="1065.8" cy="1066.7" r="563.8"/>
		<path d="M1065.8,1638.5c-77.2,0-152.1-15.1-222.6-44.9c-68.1-28.8-129.2-70-181.7-122.5c-52.5-52.5-93.7-113.7-122.5-181.7
			c-29.8-70.5-44.9-145.4-44.9-222.6c0-77.2,15.1-152.1,44.9-222.6c28.8-68.1,70-129.2,122.5-181.7
			c52.5-52.5,113.7-93.7,181.7-122.5c70.5-29.8,145.4-44.9,222.6-44.9s152.1,15.1,222.6,44.9c68.1,28.8,129.2,70,181.7,122.5
			c52.5,52.5,93.7,113.7,122.5,181.7c29.8,70.5,44.9,145.4,44.9,222.6c0,77.2-15.1,152.1-44.9,222.6
			c-28.8,68.1-70,129.2-122.5,181.7s-113.7,93.7-181.7,122.5C1217.9,1623.4,1143,1638.5,1065.8,1638.5z M1065.8,511
			C759.4,511,510,760.3,510,1066.7c0,306.4,249.3,555.8,555.8,555.8c306.4,0,555.8-249.3,555.8-555.8
			C1621.6,760.3,1372.3,511,1065.8,511z"/>
	</g>
	<polygon class="st1" points="1465.1,1302.6 1205.2,1159.1 1444.7,1334.6 1197.3,1170.4 1421.7,1364.9 1188.6,1180.9 1396.3,1393.2 
		1179,1190.8 1368.7,1419.3 1168.7,1199.8 1339.1,1443.1 1157.7,1207.9 1307.7,1464.4 1146,1215.2 1274.6,1483.1 1133.8,1221.4 
		1240.1,1499.1 1121.2,1226.7 1204.5,1512.1 1108.1,1230.8 1167.9,1522.2 1094.8,1234 1130.7,1529.3 1081.3,1236 1093,1533.4 
		1067.6,1236.9 1055,1534.3 1053.9,1236.7 1017.2,1532.2 1040.3,1235.3 979.7,1526.9 1026.9,1232.9 942.7,1518.7 1013.6,1229.3 
		906.5,1507.4 1000.8,1224.7 871.4,1493.2 988.3,1219.1 837.6,1476.2 976.4,1212.5 805.3,1456.5 965,1204.9 774.7,1434.1 
		954.3,1196.4 746,1409.4 944.3,1187 719.4,1382.4 935.1,1176.9 695.1,1353.3 926.8,1166.1 673.3,1322.3 919.4,1154.6 654.1,1289.7 
		913,1142.5 637.6,1255.5 907.5,1130 624,1220.2 903.1,1117 613.2,1183.8 899.8,1103.7 605.5,1146.6 897.5,1090.2 600.8,1109 
		896.4,1076.5 599.3,1071 896.4,1062.8 600.8,1033.1 897.5,1049.2 605.3,995.4 899.7,1035.6 613,958.2 903,1022.3 623.6,921.7 
		907.4,1009.3 637.2,886.2 912.8,996.7 653.6,851.9 919.2,984.6 672.7,819.1 926.6,973 694.5,787.9 934.9,962.1 718.7,758.6 
		944,951.9 745.2,731.3 954,942.5 773.8,706.3 964.7,933.9 804.4,683.8 976,926.2 836.6,663.7 988,919.4 870.4,646.4 1000.4,913.7 
		905.5,631.9 1013.3,909 941.6,620.3 1026.5,905.3 978.6,611.7 1039.9,902.8 1016.1,606.1 1053.5,901.3 1054,603.6 1067.2,901 
		1091.9,604.2 1080.9,901.7 1129.6,607.9 1094.4,903.6 1166.9,614.7 1107.8,906.6 1203.5,624.5 1120.8,910.7 1239.1,637.2 
		1133.5,915.8 1273.6,652.8 1145.7,922 1306.7,671.2 1157.4,929.1 1338.2,692.3 1168.4,937.1 1367.9,715.8 1178.8,946 1395.5,741.7 
		1188.3,955.8 1421,769.7 1197.1,966.3 1444,799.8 1205,977.5 1464.6,831.7 1211.9,989.3 1482.4,865.1 1217.9,1001.6 1497.5,899.9 
		1222.8,1014.3 1509.7,935.8 1226.7,1027.5 1519,972.6 1229.4,1040.9 1525.2,1010 1231.1,1054.5 1528.3,1047.8 1231.7,1068.2 
		1528.3,1085.8 1231.2,1081.9 1525.3,1123.7 1229.5,1095.5 1519.2,1161.2 1226.8,1108.9 1510,1198 1222.9,1122.1 1497.9,1234.1 
		1218,1134.9 1482.9,1269 1212.1,1147.3 	"/>
	<g>
		<ellipse class="st0" cx="1068.8" cy="1063.3" rx="246.2" ry="250"/>
		<path d="M1068.8,1319.6c-67.4,0-130.8-26.7-178.5-75.1c-47.7-48.4-73.9-112.7-73.9-181.2s26.2-132.8,73.9-181.2
			c47.7-48.4,111.1-75.1,178.5-75.1c67.4,0,130.8,26.7,178.5,75.1c47.7,48.4,73.9,112.7,73.9,181.2s-26.2,132.8-73.9,181.2
			C1199.7,1292.9,1136.3,1319.6,1068.8,1319.6z M1068.8,819.5c-132.3,0-240,109.4-240,243.8c0,134.4,107.6,243.8,240,243.8
			c132.3,0,240-109.4,240-243.8C1308.8,928.9,1201.1,819.5,1068.8,819.5z"/>
	</g>
	<path d="M1067.5,554.3c-285.6,0-517.9,231-517.9,515s232.3,515,517.9,515c285.6,0,517.9-231,517.9-515S1353,554.3,1067.5,554.3z
		 M826.3,1470.9l-15.7,27c-21.2-12.6-41.3-26.7-60.3-42.1l20-23.7C788,1446.3,806.7,1459.3,826.3,1470.9z M838.3,1477.7
		c19.8,10.9,40.5,20.5,61.9,28.6l-10.8,29.5c-23.1-8.8-45.4-19.2-66.7-31.1L838.3,1477.7z M913.1,1511c21.3,7.3,43.3,13.2,65.9,17.5
		l-5.5,31.1c-24.4-4.6-48.2-11-71.2-19L913.1,1511z M992.6,1530.8c22.2,3.5,44.8,5.5,67.9,5.8v31.6c-25-0.3-49.5-2.5-73.4-6.3
		L992.6,1530.8z M1074.4,1536.7c23.1-0.3,45.8-2.3,67.9-5.8l5.5,31.1c-24,3.9-48.5,6-73.4,6.4V1536.7z M1155.9,1528.5
		c22.6-4.3,44.6-10.1,65.9-17.5l10.8,29.5c-23,8-46.8,14.4-71.2,19L1155.9,1528.5z M1234.8,1506.3c21.4-8.1,42.1-17.7,61.8-28.6
		l15.7,27c-21.3,11.9-43.6,22.3-66.8,31.1L1234.8,1506.3z M1308.6,1470.9c19.6-11.6,38.3-24.6,56-38.8l20,23.7
		c-19,15.4-39.1,29.5-60.3,42.1L1308.6,1470.9z M1067.5,1522.1c-252.8,0-458.5-204.6-458.5-456.1c0-251.5,205.7-456.1,458.5-456.1
		c252.8,0,458.5,204.6,458.5,456.1C1525.9,1317.5,1320.3,1522.1,1067.5,1522.1z M659.7,827.3l-23.3-13.4
		c12.6-20.9,26.6-40.8,42-59.6l20.6,16.5C684.7,788.6,671.5,807.5,659.7,827.3z M652.9,839.2c-11.1,19.9-20.7,40.7-28.8,62.3
		l-25.8-9.3c8.8-23,19.3-45.1,31.2-66.3L652.9,839.2z M619.4,914.5c-7.3,21.4-13.2,43.6-17.4,66.3l-27.6-4.8
		c4.6-24.3,11.1-47.9,19.1-70.8L619.4,914.5z M599.8,994.3c-3.4,22.2-5.3,45-5.5,68.1h-28.6c0.3-24.8,2.5-49.2,6.4-73L599.8,994.3z
		 M594.4,1076.2c0.5,23.1,2.7,45.8,6.4,67.9l-28.7,5c-3.9-23.8-6-48.2-6.4-73H594.4z M603.3,1157.7c4.5,22.5,10.6,44.5,18.2,65.7
		l-27.9,10.1c-8-22.9-14.5-46.5-19.1-70.8L603.3,1157.7z M626.3,1236.3c8.3,21.3,18.2,41.8,29.4,61.5l-26.2,15
		c-12-21.2-22.4-43.4-31.2-66.3L626.3,1236.3z M662.7,1309.6c11.9,19.4,25.1,38,39.6,55.4l-23.5,19.6c-15.5-18.9-29.7-38.9-42.3-60
		L662.7,1309.6z M977.4,603.8l-4.1-24.7c23.4-4.4,47.4-7.3,71.9-8.3l0,24.9C1022.1,596.8,999.5,599.5,977.4,603.8z M963.8,606.6
		c-18,4-35.7,9.1-52.9,15.1l-8.6-23.6c18.7-6.5,37.8-11.9,57.4-16.2L963.8,606.6z M898,626.4c-21.7,8.3-42.6,18.2-62.6,29.4
		l-12.8-22c21.3-11.9,43.6-22.3,66.7-31.1L898,626.4z M823.5,662.8c-19.8,11.9-38.7,25.2-56.4,39.8l-16.6-19.7
		c19-15.4,39.1-29.5,60.3-42.1L823.5,662.8z M1311.5,662.8l12.8-22c21.2,12.6,41.3,26.7,60.3,42.1l-16.6,19.7
		C1350.1,688,1331.3,674.7,1311.5,662.8z M1299.5,655.8c-20-11.3-40.9-21.1-62.6-29.4l8.7-23.7c23.1,8.8,45.4,19.2,66.7,31.1
		L1299.5,655.8z M1224,621.7c-26.5-9.3-54.1-16.2-82.5-20.7l4.4-24.6c29.9,4.7,58.9,12,86.8,21.7L1224,621.7z M1540.6,1062.4
		c-0.2-23.1-2-45.9-5.5-68.1l27.7-4.8c3.9,23.8,6,48.2,6.4,73H1540.6z M1532.8,980.7c-4.2-22.7-10-44.8-17.4-66.3l25.9-9.4
		c8,22.9,14.5,46.5,19.1,70.8L1532.8,980.7z M1510.8,901.5c-8.1-21.5-17.7-42.3-28.8-62.3l23.3-13.4c12,21.2,22.4,43.4,31.2,66.3
		L1510.8,901.5z M1475.2,827.3c-11.7-19.8-24.9-38.6-39.3-56.4l20.2-16.9c15.5,18.9,29.7,38.9,42.3,59.9L1475.2,827.3z
		 M1472.2,1309.6l26.2,15.1c-12.7,21-26.8,41.1-42.3,60l-23.5-19.6C1447.1,1347.6,1460.3,1329,1472.2,1309.6z M1479.2,1297.8
		c11.2-19.7,21.1-40.2,29.4-61.5l28,10.1c-8.8,23-19.3,45.1-31.2,66.3L1479.2,1297.8z M1513.4,1223.4c7.6-21.2,13.7-43.2,18.2-65.7
		l28.8,5.1c-4.6,24.3-11,47.9-19.1,70.8L1513.4,1223.4z M1562.8,1149.2l-28.7-5c3.7-22.2,5.9-44.9,6.4-67.9h28.7
		C1568.9,1101,1566.7,1125.4,1562.8,1149.2z M1447.2,743.5l-20.2,16.8c-15-17.4-31.2-33.8-48.6-48.9l16.7-19.8
		C1413.7,707.6,1431.1,725,1447.2,743.5z M1132.1,574.4l-4.4,24.6c-19.8-2.5-39.9-3.8-60.3-3.8c-2.8,0-5.7,0-8.5,0.1l0-24.9
		c2.8,0,5.7-0.1,8.5-0.1C1089.4,570.3,1111,571.7,1132.1,574.4z M739.8,691.7l16.7,19.8c-17.5,15.3-34,31.8-49.1,49.4l-20.5-16.4
		C703.2,725.6,720.9,707.9,739.8,691.7z M687.7,1395.2l23.5-19.7c15,17.1,31.2,33,48.5,47.8l-20,23.6
		C721.2,1431,703.8,1413.7,687.7,1395.2z M1395.1,1446.9l-20-23.6c17.3-14.8,33.5-30.7,48.5-47.8l23.5,19.6
		C1431.1,1413.7,1413.7,1431,1395.1,1446.9z"/>
	<g>
		<g>
			<g>
				<g>
					<g>
						<path d="M839.8,653.9c-0.1,0.1-0.3,0.2-0.4,0.3l227.6,405.2l54.8-30.6L839.8,653.9z"/>
					</g>
				</g>
				<g>
					<g>
						<path d="M839.4,654.2c-0.1,0.1-0.3,0.1-0.4,0.2l173.2,435.7l54.8-30.6L839.4,654.2z"/>
					</g>
				</g>
			</g>
			<g>
				<g>
					<g>
						<polygon points="1472.8,833.9 1067,1059.4 1097.7,1114.3 						"/>
					</g>
				</g>
				<g>
					<g>
						<polygon points="1472.8,833.9 1067,1059.4 1036.4,1004.6 						"/>
					</g>
				</g>
				<g>
					<g>
						<polygon points="1472.8,833.9 1067,1059.4 1082.5,991.7 						"/>
					</g>
				</g>
			</g>
			<g>
				<g>
					<g>
						<polygon points="1293.6,1467 1067,1059.4 1012.2,1090.1 						"/>
					</g>
				</g>
				<g>
					<g>
						<polygon points="1293.6,1467 1067,1059.4 1121.9,1028.8 						"/>
					</g>
				</g>
				<g>
					<g>
						<polygon points="1293.6,1467 1067,1059.4 1134.8,1074.9 						"/>
					</g>
				</g>
			</g>
			<g>
				<g>
					<g>
						<polygon points="655.8,1289.6 1067,1059.4 1036.4,1004.6 						"/>
					</g>
				</g>
				<g>
					<g>
						<polygon points="655.8,1289.6 1067,1059.4 1097.7,1114.3 						"/>
					</g>
				</g>
				<g>
					<g>
						<polygon points="655.8,1289.6 1067,1059.4 1051.6,1127.2 						"/>
					</g>
				</g>
			</g>
			<g>
				<g>
					<path d="M839.4,654.2c-0.1,0.1-0.3,0.1-0.4,0.2L999.3,1044l67.8,15.4L839.4,654.2z"/>
				</g>
			</g>
		</g>
		<g>
			<g>
				<g>
					<polygon class="st0" points="1068.6,1057.3 1435.3,850.1 1085.9,994.9 					"/>
				</g>
			</g>
			<g>
				<g>
					<polygon class="st0" points="1277.4,1429.5 1131.6,1078.4 1069.2,1061 					"/>
				</g>
			</g>
			<g>
				<g>
					<polygon class="st0" points="1065.4,1061.6 693.3,1273.4 1048.1,1124 					"/>
				</g>
			</g>
			<g>
				<g>
					<polygon class="st0" points="853.9,688.5 1002.4,1040.5 1064.9,1057.8 					"/>
				</g>
			</g>
		</g>
	</g>
	<g>
		<g>
			<g>
				<g>
					<g>
						<polygon points="681.5,813.3 1076.6,1064.8 1110.5,1011.9 						"/>
					</g>
				</g>
				<g>
					<g>
						<polygon points="681.5,813.3 1076.6,1064.8 1042.8,1117.7 						"/>
					</g>
				</g>
			</g>
			<g>
				<g>
					<g>
						<polygon points="1327.6,674.2 1076.6,1064.8 1129.5,1098.6 						"/>
					</g>
				</g>
				<g>
					<g>
						<polygon points="1327.6,674.2 1076.6,1064.8 1023.7,1031 						"/>
					</g>
				</g>
				<g>
					<g>
						<polygon points="1327.6,674.2 1076.6,1064.8 1058.2,997.8 						"/>
					</g>
				</g>
			</g>
			<g>
				<g>
					<g>
						<path d="M1463.8,1313.6l-387.1-248.8l-33.8,52.9l420.6,196.6C1463.5,1314.1,1463.6,1313.8,1463.8,1313.6z"/>
					</g>
				</g>
				<g>
					<g>
						<path d="M1464.2,1312.9l-353.7-301l-33.8,52.9l387.1,248.8C1463.9,1313.3,1464,1313.1,1464.2,1312.9z"/>
					</g>
				</g>
				<g>
					<g>
						<path d="M1464.2,1312.9l-320.5-266.6l-67,18.4l387.1,248.8C1463.9,1313.3,1464,1313.1,1464.2,1312.9z"/>
					</g>
				</g>
			</g>
			<g>
				<g>
					<g>
						<polygon points="823,1462 1076.6,1064.8 1023.7,1031 						"/>
					</g>
				</g>
				<g>
					<g>
						<polygon points="823,1462 1076.6,1064.8 1129.5,1098.6 						"/>
					</g>
				</g>
				<g>
					<g>
						<polygon points="823,1462 1076.6,1064.8 1095,1131.8 						"/>
					</g>
				</g>
			</g>
			<g>
				<g>
					<polygon points="681.5,813.3 1076.6,1064.8 1009.6,1083.2 					"/>
				</g>
			</g>
		</g>
		<g>
			<g>
				<g>
					<polygon class="st0" points="1077,1062.2 1302.3,706.3 1062.8,998.9 					"/>
				</g>
			</g>
			<g>
				<g>
					<polygon class="st0" points="1436.9,1291.5 1142.5,1050.9 1079.3,1065.2 					"/>
				</g>
			</g>
			<g>
				<g>
					<polygon class="st0" points="1076.2,1067.4 848.4,1429.9 1090.5,1130.6 					"/>
				</g>
			</g>
			<g>
				<g>
					<polygon class="st0" points="713.6,838.6 1010.8,1078.6 1074,1064.4 					"/>
				</g>
			</g>
		</g>
	</g>
	<g>
		<g>
			<g>
				<g>
					<g>
						<polygon points="413.1,1063.9 1065.8,1062.4 1065.8,974.9 						"/>
					</g>
				</g>
				<g>
					<g>
						<polygon points="413.1,1063.9 1065.8,1062.4 1065.8,1149.9 						"/>
					</g>
				</g>
			</g>
			<g>
				<g>
					<g>
						<polygon points="1067.1,415.5 1065.8,1062.4 1153.3,1062.4 						"/>
					</g>
				</g>
				<g>
					<g>
						<polygon points="1067.1,415.5 1065.8,1062.4 978.3,1062.4 						"/>
					</g>
				</g>
				<g>
					<g>
						<polygon points="1067.1,415.5 1065.8,1062.4 993.9,997.6 						"/>
					</g>
				</g>
			</g>
			<g>
				<g>
					<g>
						<polygon points="1715.7,1063.8 1065.8,1062.4 1065.8,1149.9 						"/>
					</g>
				</g>
				<g>
					<g>
						<polygon points="1715.7,1063.8 1065.8,1062.4 1065.8,974.9 						"/>
					</g>
				</g>
				<g>
					<g>
						<polygon points="1715.7,1063.8 1065.8,1062.4 1130.7,990.5 						"/>
					</g>
				</g>
			</g>
			<g>
				<g>
					<g>
						<polygon points="1066.4,1719.1 1065.8,1062.4 978.3,1062.4 						"/>
					</g>
				</g>
				<g>
					<g>
						<polygon points="1066.4,1719.1 1065.8,1062.4 1153.3,1062.4 						"/>
					</g>
				</g>
				<g>
					<g>
						<polygon points="1066.4,1719.1 1065.8,1062.4 1137.8,1127.3 						"/>
					</g>
				</g>
			</g>
			<g>
				<g>
					<polygon points="413.1,1063.9 1065.8,1062.4 1001,1134.4 					"/>
				</g>
			</g>
		</g>
		<g>
			<g>
				<g>
					<polygon class="st0" points="1064.3,1059 1061.4,472.1 1000.1,995.5 					"/>
				</g>
			</g>
			<g>
				<g>
					<polygon class="st0" points="1659,1058.1 1132.7,996.7 1069.2,1060.9 					"/>
				</g>
			</g>
			<g>
				<g>
					<polygon class="st0" points="1067.3,1065.8 1072.1,1662.5 1131.5,1129.3 					"/>
				</g>
			</g>
			<g>
				<g>
					<polygon class="st0" points="469.7,1069.6 998.9,1128.1 1062.4,1063.9 					"/>
				</g>
			</g>
		</g>
	</g>
	<g>
		<polygon points="777.4,585.9 771.3,522.7 816.4,562.3 		"/>
		<polygon points="582.3,775.5 549.6,722 609,738.5 		"/>
	</g>
	<polygon points="1549.2,768.1 1612.7,765.6 1570.6,808.4 	"/>
	<polygon points="1348,576.5 1397.6,538.2 1387.6,599 	"/>
	<polygon points="748.7,1536.8 739.6,1599.7 786.5,1562.3 	"/>
	<polygon points="560.1,1325.7 522,1375.5 582.8,1365.2 	"/>
	<polygon points="1550.2,1366 1613.6,1368.5 1571.5,1325.7 	"/>
	<polygon points="1333.5,1570.8 1384.5,1607.2 1372.2,1546.7 	"/>
	<g>
		<path d="M1069.9,358.3c-11.2,21.1-23.5,31.7-36.7,31.7c-6.9,0-12.5-2.5-16.7-7.6c-4.2-5.1-6.3-11.8-6.3-20.2
			c0-9.7,3.5-24.6,10.4-44.4c7-19.9,10.4-33.9,10.4-42.2c0-3.7-1-6.7-3.1-9.2c-2.1-2.4-4.7-3.7-7.8-3.7c-4.8,0-9.6,2.9-14.3,8.8
			c-4.7,5.9-7.1,11.9-7.1,18c0,4.7,2.1,9.6,6.4,14.6c1.8,2.1,2.6,3.6,2.6,4.4c0,0.9-1.3,3-4,6.3c-2.7,3.2-5,4.9-6.9,4.9
			c-2.1,0-4.4-1.5-7-4.5c-2.6-3-3.9-7.5-3.9-13.4c0-12.1,4.2-23,12.7-32.9c8.5-9.9,17.8-14.8,28.1-14.8c7.7,0,14.2,3.2,19.5,9.5
			c5.3,6.4,8,14.3,8,23.8c-0.1,10-3.3,24.1-9.7,42.4c-6.4,18.3-9.5,30.5-9.5,36.7c0,2.9,0.7,5.3,2.2,7c1.5,1.7,3.5,2.6,6,2.6
			c5.4,0,10.8-4.4,16.2-13.3c5.4-8.9,10.3-21.6,14.7-38.1l8.8-33c3.4-13,7.3-24.3,11.5-34c0.4-1.1,3.4-1.9,8.8-2.5
			c5.4-0.6,9.3-0.9,11.8-0.9c2.4,0,3.7,0.5,3.7,1.5l-17.2,65.4c-4.9,19.2-7.4,33.2-7.4,42.1c0,3.9,0.8,7,2.4,9.2
			c1.6,2.3,3.8,3.4,6.6,3.4c4.1,0,9.6-3.3,16.6-10c7-6.7,12.9-15.1,17.8-25.5c4.8-10.3,7.2-20.9,7.2-31.7c0-11.6-2.8-23.1-8.4-34.5
			c-1.6-3.3-2.3-5.4-2.3-6.2c0-2.7,2.6-5.7,7.7-8.9c5.2-3.2,8.9-4.9,11.1-4.9c2.1,0,4.3,2.8,6.4,8.5c2.2,5.7,3.2,11.6,3.2,17.8
			c0,16.4-3.8,33.3-11.5,50.5c-7.7,17.2-17.2,31.3-28.7,42.4c-11.4,11.1-21.8,16.6-31,16.6c-6.6,0-11.8-2.6-15.6-7.9
			C1071.6,376.8,1069.7,368.9,1069.9,358.3z"/>
	</g>
	<g>
		<path d="M1131.6,1853.3c-14,15.1-26.7,22.6-38.2,22.6c-7,0-12.3-3.4-16-10.1c-3.7-6.7-5.5-15.8-5.5-27.1c0-8.7,1.8-20.8,5.4-36.1
			c3.6-15.3,8.2-28.2,13.9-38.6l5.4-9.7c-7.4,7.7-13.5,16.2-18.3,25.4c-4.7,9.2-10.4,22.1-17,38.7c-6.6,16.6-11.6,27.8-14.9,33.8
			c-3.4,6-6.6,10.9-9.7,14.7c-3.1,3.8-5.8,6.2-8.2,7.4s-6.6,1.7-12.6,1.7c-2.3,0-3.5-0.6-3.5-1.9c0-0.1,0.4-2.1,1.2-5.9
			c0.8-3.8,1.7-9.9,2.5-18.3c0.9-8.4,1.5-22.7,1.9-42.8c0.4-20.1,3.3-37.4,8.8-51.8c-5.9,6.7-11.9,22.2-18,46.7l-2.3,9.2
			c-6.4,25.4-13.8,42.6-22.1,51.5c-8.3,8.9-16.5,13.4-24.5,13.4c-4.9,0-9.3-1.6-13-4.7c-3.8-3.1-5.6-6.7-5.6-10.8
			c0-3.1,2.3-6.6,6.8-10.5c4.5-3.9,7.3-5.8,8.5-5.8c1.4,0,2.3,0.5,2.7,1.4c0.4,0.9,1,3.5,1.7,7.7c0.7,4.2,1.7,7,3.1,8.2
			c1.4,1.3,3.2,1.9,5.3,1.9c4.8,0,10.1-4.8,16-14.5c5.8-9.7,11.2-24.6,16-44.7l2.7-11.3c2.2-9.2,4.4-16.6,6.5-22.1
			c2.1-5.5,5-11,8.5-16.5c5.1-7.9,8.2-12.1,9.3-12.6c1.2-0.5,3.3-1,6.5-1.3s6.4-0.5,9.6-0.5c1.2,0,1.9,0.7,1.9,2.2
			c0,0.7-0.2,2.1-0.6,4.2c-1.2,8.7-1.8,17.5-1.8,26.3l0.2,25.1c0.1,21.9-1.6,39.5-5.2,52.9c3.3-4,8.1-14.3,14.4-30.9
			c9.1-23.6,17.4-41.2,24.9-53c3.6-5.7,7.9-11.1,12.9-16.4c5-5.2,8.5-8,10.4-8.4c6.6-1.2,12.2-1.9,16.8-1.9c1.7,0,2.5,0.5,2.5,1.4
			c0,1.3-1,4.3-3.1,8.8c-4.9,11-9.4,25.9-13.6,44.6s-6.3,33.7-6.4,44.8c0,12.6,3.8,18.8,11.5,18.8c6.2,0,13.7-5.3,22.3-15.9V1853.3z
			"/>
	</g>
	<g>
		<path d="M1777.9,1112.6l12,5.1c3.9,1.7,7,2.8,9.5,3.4c2.5,0.6,4.8,0.9,7.1,0.9c10.4,0,18.7-6.8,25-20.4
			c6.3-13.6,9.4-28.2,9.4-43.7c0-16.4-4-29.7-11.9-39.7c-8-10-18.4-15-31.3-15c-10.3,0-20,3.7-29,11.1c-9,7.4-13.5,15.2-13.5,23.5
			c0,6.2,2.6,10.4,7.9,12.7c2.2,1.1,3.4,2.5,3.4,4.2c0,1.8-2.5,3.8-7.4,5.9c-4.9,2.1-7.9,3.2-9,3.2c-3.2,0-6-1.9-8.4-5.6
			c-2.4-3.7-3.7-7.8-3.7-12.3c0-11.9,6.2-23.3,18.7-34c12.5-10.7,28.7-16.1,48.7-16.1c19.1,0,34.4,5.3,45.7,15.8
			c11.4,10.5,17.1,24.6,17.1,42.3c0,13.5-3.5,26.3-10.5,38.4c-7,12.1-16.5,21.7-28.4,28.9c-11.9,7.1-24.5,10.7-37.8,10.7
			c-11.2,0-21.6-2.4-31.3-7.3c-7.8,4.9-14.6,7.3-20.3,7.3c-3.2,0-6-0.9-8.2-2.8c-2.2-1.9-3.3-4.2-3.3-6.8c0-4.4,2.3-8.1,6.8-11.1
			c4.6-3,10.3-4.5,17.1-4.5c4.9,0,9.5,0.8,14,2.3c3.9-3.2,6.6-7.2,8.1-11.7c1.4-4.6,2.9-12.6,4.3-24.2c1.4-11.6,3.7-20.6,6.7-27.3
			c3.1-6.6,7.6-12.2,13.5-16.6s12-7,18-7.7l3.7,5c-3.9,3.9-6.8,7.9-8.7,12c-1.9,4.1-3.6,12.8-5.2,26.2c-1.5,13.4-4.5,23.5-8.8,30.2
			C1793.6,1101.4,1786.9,1107.4,1777.9,1112.6z"/>
	</g>
	<g>
		<path d="M382.3,1095.9c-14.8,15.1-30,22.6-45.5,22.6c-4.5,0-8.8-0.6-13-1.7c-4.2-1.2-9.2-3.1-15.2-5.9c-6-2.7-11.2-4.7-15.8-6
			c-8.4,9.2-16.1,13.9-22.9,13.9c-2.4,0-4.3-0.8-5.9-2.3c-1.6-1.6-2.3-3.5-2.3-5.7c0-4.7,2.3-8.9,7-12.5c4.7-3.6,11.2-6.1,19.7-7.5
			c3.6-4.9,5.8-9.6,6.8-14.3c1-4.7,1.8-12.3,2.3-23c1.1-22,6.9-39.2,17.7-51.7c10.7-12.5,22.4-18.7,34.9-18.7
			c8.6,0,15.7,2.7,21.2,8.2c5.5,5.5,8.3,12.4,8.3,20.9c0,9.8-2.9,18.4-8.7,25.8c-5.8,7.4-12.5,11.1-20.1,11.1c-3.9,0-7-1.1-9.3-3.2
			c-2.2-2.2-3.4-5.1-3.4-8.9c0-1.9,0.4-4.2,1.1-6.7c1.7,1.9,3.8,2.9,6.4,2.9c4.2,0,8-2.5,11.2-7.6c3.2-5.1,4.8-11.1,4.8-18.1
			c0-5.4-1.2-9.6-3.7-12.7c-2.4-3.1-5.8-4.6-10-4.6c-5.1,0-9.1,1.8-11.9,5.5c-2.8,3.7-4.8,8.1-5.9,13.2s-2.3,13.4-3.6,24.8
			c-1.3,11.4-3.4,21.6-6.4,30.4c-3,8.8-8.5,17.5-16.7,26c5.3-0.4,9.9-0.1,13.8,0.9c3.9,1,9.5,2.9,16.8,5.7
			c7.3,2.8,13.5,4.2,18.8,4.2c10.2,0,20-5.2,29.3-15.7V1095.9z"/>
	</g>
</g>
</svg>
